<svg width="290" height="52" viewBox="0 0 290 52" fill="none" xmlns="http://www.w3.org/2000/svg">
<path d="M14.4177 17.144C14.4177 14.392 14.8657 12.248 15.7617 10.712C16.6577 9.16 18.2257 8.384 20.4657 8.384C22.6897 8.384 24.2497 9.16 25.1457 10.712C26.0417 12.248 26.4897 14.392 26.4897 17.144C26.4897 19.944 26.0417 22.12 25.1457 23.672C24.2497 25.224 22.6897 26 20.4657 26C18.2257 26 16.6577 25.224 15.7617 23.672C14.8657 22.12 14.4177 19.944 14.4177 17.144ZM24.3297 17.144C24.3297 15.752 24.2337 14.576 24.0417 13.616C23.8657 12.64 23.4897 11.856 22.9137 11.264C22.3537 10.672 21.5377 10.376 20.4657 10.376C19.3777 10.376 18.5457 10.672 17.9697 11.264C17.4097 11.856 17.0337 12.64 16.8417 13.616C16.6657 14.576 16.5777 15.752 16.5777 17.144C16.5777 18.584 16.6657 19.792 16.8417 20.768C17.0337 21.744 17.4097 22.528 17.9697 23.12C18.5457 23.712 19.3777 24.008 20.4657 24.008C21.5377 24.008 22.3537 23.712 22.9137 23.12C23.4897 22.528 23.8657 21.744 24.0417 20.768C24.2337 19.792 24.3297 18.584 24.3297 17.144ZM29.488 17.144C29.488 14.392 29.936 12.248 30.832 10.712C31.728 9.16 33.296 8.384 35.536 8.384C37.76 8.384 39.32 9.16 40.216 10.712C41.112 12.248 41.56 14.392 41.56 17.144C41.56 19.944 41.112 22.12 40.216 23.672C39.32 25.224 37.76 26 35.536 26C33.296 26 31.728 25.224 30.832 23.672C29.936 22.12 29.488 19.944 29.488 17.144ZM39.4 17.144C39.4 15.752 39.304 14.576 39.112 13.616C38.936 12.64 38.56 11.856 37.984 11.264C37.424 10.672 36.608 10.376 35.536 10.376C34.448 10.376 33.616 10.672 33.04 11.264C32.48 11.856 32.104 12.64 31.912 13.616C31.736 14.576 31.648 15.752 31.648 17.144C31.648 18.584 31.736 19.792 31.912 20.768C32.104 21.744 32.48 22.528 33.04 23.12C33.616 23.712 34.448 24.008 35.536 24.008C36.608 24.008 37.424 23.712 37.984 23.12C38.56 22.528 38.936 21.744 39.112 20.768C39.304 19.792 39.4 18.584 39.4 17.144Z" fill="white"/>
<path d="M15.6775 41.636C16.5895 41.636 17.3775 41.808 18.0415 42.152C18.7135 42.488 19.2255 42.972 19.5775 43.604C19.9375 44.236 20.1175 44.98 20.1175 45.836C20.1175 46.692 19.9375 47.436 19.5775 48.068C19.2255 48.692 18.7135 49.172 18.0415 49.508C17.3775 49.836 16.5895 50 15.6775 50H13.0735V41.636H15.6775ZM15.6775 49.1C16.7575 49.1 17.5815 48.816 18.1495 48.248C18.7175 47.672 19.0015 46.868 19.0015 45.836C19.0015 44.796 18.7135 43.984 18.1375 43.4C17.5695 42.816 16.7495 42.524 15.6775 42.524H14.1655V49.1H15.6775ZM26.8618 48.14H23.2138L22.5418 50H21.3898L24.4138 41.684H25.6738L28.6858 50H27.5338L26.8618 48.14ZM26.5498 47.252L25.0378 43.028L23.5258 47.252H26.5498ZM36.2198 41.636L33.4958 46.844V50H32.4038V46.844L29.6678 41.636H30.8798L32.9438 45.872L35.0078 41.636H36.2198ZM40.3836 50.084C39.8316 50.084 39.3356 49.988 38.8956 49.796C38.4636 49.596 38.1236 49.324 37.8756 48.98C37.6276 48.628 37.4996 48.224 37.4916 47.768H38.6556C38.6956 48.16 38.8556 48.492 39.1356 48.764C39.4236 49.028 39.8396 49.16 40.3836 49.16C40.9036 49.16 41.3116 49.032 41.6076 48.776C41.9116 48.512 42.0636 48.176 42.0636 47.768C42.0636 47.448 41.9756 47.188 41.7996 46.988C41.6236 46.788 41.4036 46.636 41.1396 46.532C40.8756 46.428 40.5196 46.316 40.0716 46.196C39.5196 46.052 39.0756 45.908 38.7396 45.764C38.4116 45.62 38.1276 45.396 37.8876 45.092C37.6556 44.78 37.5396 44.364 37.5396 43.844C37.5396 43.388 37.6556 42.984 37.8876 42.632C38.1196 42.28 38.4436 42.008 38.8596 41.816C39.2836 41.624 39.7676 41.528 40.3116 41.528C41.0956 41.528 41.7356 41.724 42.2316 42.116C42.7356 42.508 43.0196 43.028 43.0836 43.676H41.8836C41.8436 43.356 41.6756 43.076 41.3796 42.836C41.0836 42.588 40.6916 42.464 40.2036 42.464C39.7476 42.464 39.3756 42.584 39.0876 42.824C38.7996 43.056 38.6556 43.384 38.6556 43.808C38.6556 44.112 38.7396 44.36 38.9076 44.552C39.0836 44.744 39.2956 44.892 39.5436 44.996C39.7996 45.092 40.1556 45.204 40.6116 45.332C41.1636 45.484 41.6076 45.636 41.9436 45.788C42.2796 45.932 42.5676 46.16 42.8076 46.472C43.0476 46.776 43.1676 47.192 43.1676 47.72C43.1676 48.128 43.0596 48.512 42.8436 48.872C42.6276 49.232 42.3076 49.524 41.8836 49.748C41.4596 49.972 40.9596 50.084 40.3836 50.084Z" fill="white" fill-opacity="0.8"/>
<path d="M66.9893 26.144C66.5733 26.144 66.2213 26 65.9333 25.712C65.6453 25.424 65.5013 25.072 65.5013 24.656C65.5013 24.24 65.6453 23.888 65.9333 23.6C66.2213 23.312 66.5733 23.168 66.9893 23.168C67.3893 23.168 67.7253 23.312 67.9973 23.6C68.2853 23.888 68.4293 24.24 68.4293 24.656C68.4293 25.072 68.2853 25.424 67.9973 25.712C67.7253 26 67.3893 26.144 66.9893 26.144ZM66.9893 15.872C66.5733 15.872 66.2213 15.728 65.9333 15.44C65.6453 15.152 65.5013 14.8 65.5013 14.384C65.5013 13.968 65.6453 13.616 65.9333 13.328C66.2213 13.04 66.5733 12.896 66.9893 12.896C67.3893 12.896 67.7253 13.04 67.9973 13.328C68.2853 13.616 68.4293 13.968 68.4293 14.384C68.4293 14.8 68.2853 15.152 67.9973 15.44C67.7253 15.728 67.3893 15.872 66.9893 15.872Z" fill="white" fill-opacity="0.6"/>
<path d="M93.0505 17.144C93.0505 14.392 93.4985 12.248 94.3945 10.712C95.2905 9.16 96.8585 8.384 99.0985 8.384C101.323 8.384 102.883 9.16 103.779 10.712C104.674 12.248 105.122 14.392 105.122 17.144C105.122 19.944 104.674 22.12 103.779 23.672C102.883 25.224 101.323 26 99.0985 26C96.8585 26 95.2905 25.224 94.3945 23.672C93.4985 22.12 93.0505 19.944 93.0505 17.144ZM102.963 17.144C102.963 15.752 102.867 14.576 102.675 13.616C102.499 12.64 102.123 11.856 101.547 11.264C100.987 10.672 100.171 10.376 99.0985 10.376C98.0105 10.376 97.1785 10.672 96.6025 11.264C96.0425 11.856 95.6665 12.64 95.4745 13.616C95.2985 14.576 95.2105 15.752 95.2105 17.144C95.2105 18.584 95.2985 19.792 95.4745 20.768C95.6665 21.744 96.0425 22.528 96.6025 23.12C97.1785 23.712 98.0105 24.008 99.0985 24.008C100.171 24.008 100.987 23.712 101.547 23.12C102.123 22.528 102.499 21.744 102.675 20.768C102.867 19.792 102.963 18.584 102.963 17.144ZM107.857 24.248C109.889 22.616 111.481 21.28 112.633 20.24C113.785 19.184 114.753 18.088 115.537 16.952C116.337 15.8 116.737 14.672 116.737 13.568C116.737 12.528 116.481 11.712 115.969 11.12C115.473 10.512 114.665 10.208 113.545 10.208C112.457 10.208 111.609 10.552 111.001 11.24C110.409 11.912 110.089 12.816 110.041 13.952H107.929C107.993 12.16 108.537 10.776 109.561 9.8C110.585 8.824 111.905 8.336 113.521 8.336C115.169 8.336 116.473 8.792 117.433 9.704C118.409 10.616 118.897 11.872 118.897 13.472C118.897 14.8 118.497 16.096 117.697 17.36C116.913 18.608 116.017 19.712 115.009 20.672C114.001 21.616 112.713 22.72 111.145 23.984H119.401V25.808H107.857V24.248Z" fill="white"/>
<path d="M92.5562 41.636V50H91.4642V46.208H87.2042V50H86.1122V41.636H87.2042V45.308H91.4642V41.636H92.5562ZM98.5728 50.084C97.7968 50.084 97.0888 49.904 96.4488 49.544C95.8088 49.176 95.3008 48.668 94.9248 48.02C94.5568 47.364 94.3728 46.628 94.3728 45.812C94.3728 44.996 94.5568 44.264 94.9248 43.616C95.3008 42.96 95.8088 42.452 96.4488 42.092C97.0888 41.724 97.7968 41.54 98.5728 41.54C99.3568 41.54 100.069 41.724 100.709 42.092C101.349 42.452 101.853 42.956 102.221 43.604C102.589 44.252 102.773 44.988 102.773 45.812C102.773 46.636 102.589 47.372 102.221 48.02C101.853 48.668 101.349 49.176 100.709 49.544C100.069 49.904 99.3568 50.084 98.5728 50.084ZM98.5728 49.136C99.1568 49.136 99.6808 49 100.145 48.728C100.617 48.456 100.985 48.068 101.249 47.564C101.521 47.06 101.657 46.476 101.657 45.812C101.657 45.14 101.521 44.556 101.249 44.06C100.985 43.556 100.621 43.168 100.157 42.896C99.6928 42.624 99.1648 42.488 98.5728 42.488C97.9808 42.488 97.4528 42.624 96.9888 42.896C96.5248 43.168 96.1568 43.556 95.8848 44.06C95.6208 44.556 95.4888 45.14 95.4888 45.812C95.4888 46.476 95.6208 47.06 95.8848 47.564C96.1568 48.068 96.5248 48.456 96.9888 48.728C97.4608 49 97.9888 49.136 98.5728 49.136ZM105.642 41.636V46.928C105.642 47.672 105.822 48.224 106.182 48.584C106.55 48.944 107.058 49.124 107.706 49.124C108.346 49.124 108.846 48.944 109.206 48.584C109.574 48.224 109.758 47.672 109.758 46.928V41.636H110.85V46.916C110.85 47.612 110.71 48.2 110.43 48.68C110.15 49.152 109.77 49.504 109.29 49.736C108.818 49.968 108.286 50.084 107.694 50.084C107.102 50.084 106.566 49.968 106.086 49.736C105.614 49.504 105.238 49.152 104.958 48.68C104.686 48.2 104.55 47.612 104.55 46.916V41.636H105.642ZM117.436 50L115.444 46.58H114.124V50H113.032V41.636H115.732C116.364 41.636 116.896 41.744 117.328 41.96C117.768 42.176 118.096 42.468 118.312 42.836C118.528 43.204 118.636 43.624 118.636 44.096C118.636 44.672 118.468 45.18 118.132 45.62C117.804 46.06 117.308 46.352 116.644 46.496L118.744 50H117.436ZM114.124 45.704H115.732C116.324 45.704 116.768 45.56 117.064 45.272C117.36 44.976 117.508 44.584 117.508 44.096C117.508 43.6 117.36 43.216 117.064 42.944C116.776 42.672 116.332 42.536 115.732 42.536H114.124V45.704ZM123.345 50.084C122.793 50.084 122.297 49.988 121.857 49.796C121.425 49.596 121.085 49.324 120.837 48.98C120.589 48.628 120.461 48.224 120.453 47.768H121.617C121.657 48.16 121.817 48.492 122.097 48.764C122.385 49.028 122.801 49.16 123.345 49.16C123.865 49.16 124.273 49.032 124.569 48.776C124.873 48.512 125.025 48.176 125.025 47.768C125.025 47.448 124.937 47.188 124.761 46.988C124.585 46.788 124.365 46.636 124.101 46.532C123.837 46.428 123.481 46.316 123.033 46.196C122.481 46.052 122.037 45.908 121.701 45.764C121.373 45.62 121.089 45.396 120.849 45.092C120.617 44.78 120.501 44.364 120.501 43.844C120.501 43.388 120.617 42.984 120.849 42.632C121.081 42.28 121.405 42.008 121.821 41.816C122.245 41.624 122.729 41.528 123.273 41.528C124.057 41.528 124.697 41.724 125.193 42.116C125.697 42.508 125.981 43.028 126.045 43.676H124.845C124.805 43.356 124.637 43.076 124.341 42.836C124.045 42.588 123.653 42.464 123.165 42.464C122.709 42.464 122.337 42.584 122.049 42.824C121.761 43.056 121.617 43.384 121.617 43.808C121.617 44.112 121.701 44.36 121.869 44.552C122.045 44.744 122.257 44.892 122.505 44.996C122.761 45.092 123.117 45.204 123.573 45.332C124.125 45.484 124.569 45.636 124.905 45.788C125.241 45.932 125.529 46.16 125.769 46.472C126.009 46.776 126.129 47.192 126.129 47.72C126.129 48.128 126.021 48.512 125.805 48.872C125.589 49.232 125.269 49.524 124.845 49.748C124.421 49.972 123.921 50.084 123.345 50.084Z" fill="white" fill-opacity="0.8"/>
<path d="M144.989 26.144C144.573 26.144 144.221 26 143.933 25.712C143.645 25.424 143.501 25.072 143.501 24.656C143.501 24.24 143.645 23.888 143.933 23.6C144.221 23.312 144.573 23.168 144.989 23.168C145.389 23.168 145.725 23.312 145.997 23.6C146.285 23.888 146.429 24.24 146.429 24.656C146.429 25.072 146.285 25.424 145.997 25.712C145.725 26 145.389 26.144 144.989 26.144ZM144.989 15.872C144.573 15.872 144.221 15.728 143.933 15.44C143.645 15.152 143.501 14.8 143.501 14.384C143.501 13.968 143.645 13.616 143.933 13.328C144.221 13.04 144.573 12.896 144.989 12.896C145.389 12.896 145.725 13.04 145.997 13.328C146.285 13.616 146.429 13.968 146.429 14.384C146.429 14.8 146.285 15.152 145.997 15.44C145.725 15.728 145.389 15.872 144.989 15.872Z" fill="white" fill-opacity="0.6"/>
<path d="M173.498 10.64V8.648H178.01V26H175.802V10.64H173.498ZM184.929 16.976C184.033 16.624 183.345 16.112 182.865 15.44C182.385 14.768 182.145 13.952 182.145 12.992C182.145 12.128 182.361 11.352 182.793 10.664C183.225 9.96 183.865 9.408 184.713 9.008C185.577 8.592 186.617 8.384 187.833 8.384C189.049 8.384 190.081 8.592 190.929 9.008C191.793 9.408 192.441 9.96 192.873 10.664C193.321 11.352 193.545 12.128 193.545 12.992C193.545 13.92 193.297 14.736 192.801 15.44C192.305 16.128 191.625 16.64 190.761 16.976C191.753 17.28 192.537 17.816 193.113 18.584C193.705 19.336 194.001 20.248 194.001 21.32C194.001 22.36 193.745 23.272 193.233 24.056C192.721 24.824 191.993 25.424 191.049 25.856C190.121 26.272 189.049 26.48 187.833 26.48C186.617 26.48 185.545 26.272 184.617 25.856C183.705 25.424 182.993 24.824 182.481 24.056C181.969 23.272 181.713 22.36 181.713 21.32C181.713 20.248 182.001 19.328 182.577 18.56C183.153 17.792 183.937 17.264 184.929 16.976ZM191.433 13.256C191.433 12.28 191.113 11.528 190.473 11C189.833 10.472 188.953 10.208 187.833 10.208C186.729 10.208 185.857 10.472 185.217 11C184.577 11.528 184.257 12.288 184.257 13.28C184.257 14.176 184.585 14.896 185.241 15.44C185.913 15.984 186.777 16.256 187.833 16.256C188.905 16.256 189.769 15.984 190.425 15.44C191.097 14.88 191.433 14.152 191.433 13.256ZM187.833 17.936C186.649 17.936 185.681 18.216 184.929 18.776C184.177 19.32 183.801 20.144 183.801 21.248C183.801 22.272 184.161 23.096 184.881 23.72C185.617 24.344 186.601 24.656 187.833 24.656C189.065 24.656 190.041 24.344 190.761 23.72C191.481 23.096 191.841 22.272 191.841 21.248C191.841 20.176 191.473 19.36 190.737 18.8C190.001 18.224 189.033 17.936 187.833 17.936Z" fill="white"/>
<path d="M178.483 41.696V50H177.391V43.808L174.631 50H173.863L171.091 43.796V50H169.999V41.696H171.175L174.247 48.56L177.319 41.696H178.483ZM181.787 41.636V50H180.695V41.636H181.787ZM190.584 50H189.492L185.1 43.34V50H184.008V41.624H185.1L189.492 48.272V41.624H190.584V50ZM195.458 50.084C194.906 50.084 194.41 49.988 193.97 49.796C193.538 49.596 193.198 49.324 192.95 48.98C192.702 48.628 192.574 48.224 192.566 47.768H193.73C193.77 48.16 193.93 48.492 194.21 48.764C194.498 49.028 194.914 49.16 195.458 49.16C195.978 49.16 196.386 49.032 196.682 48.776C196.986 48.512 197.138 48.176 197.138 47.768C197.138 47.448 197.05 47.188 196.874 46.988C196.698 46.788 196.478 46.636 196.214 46.532C195.95 46.428 195.594 46.316 195.146 46.196C194.594 46.052 194.15 45.908 193.814 45.764C193.486 45.62 193.202 45.396 192.962 45.092C192.73 44.78 192.614 44.364 192.614 43.844C192.614 43.388 192.73 42.984 192.962 42.632C193.194 42.28 193.518 42.008 193.934 41.816C194.358 41.624 194.842 41.528 195.386 41.528C196.17 41.528 196.81 41.724 197.306 42.116C197.81 42.508 198.094 43.028 198.158 43.676H196.958C196.918 43.356 196.75 43.076 196.454 42.836C196.158 42.588 195.766 42.464 195.278 42.464C194.822 42.464 194.45 42.584 194.162 42.824C193.874 43.056 193.73 43.384 193.73 43.808C193.73 44.112 193.814 44.36 193.982 44.552C194.158 44.744 194.37 44.892 194.618 44.996C194.874 45.092 195.23 45.204 195.686 45.332C196.238 45.484 196.682 45.636 197.018 45.788C197.354 45.932 197.642 46.16 197.882 46.472C198.122 46.776 198.242 47.192 198.242 47.72C198.242 48.128 198.134 48.512 197.918 48.872C197.702 49.232 197.382 49.524 196.958 49.748C196.534 49.972 196.034 50.084 195.458 50.084Z" fill="white" fill-opacity="0.8"/>
<path d="M222.989 26.144C222.573 26.144 222.221 26 221.933 25.712C221.645 25.424 221.501 25.072 221.501 24.656C221.501 24.24 221.645 23.888 221.933 23.6C222.221 23.312 222.573 23.168 222.989 23.168C223.389 23.168 223.725 23.312 223.997 23.6C224.285 23.888 224.429 24.24 224.429 24.656C224.429 25.072 224.285 25.424 223.997 25.712C223.725 26 223.389 26.144 222.989 26.144ZM222.989 15.872C222.573 15.872 222.221 15.728 221.933 15.44C221.645 15.152 221.501 14.8 221.501 14.384C221.501 13.968 221.645 13.616 221.933 13.328C222.221 13.04 222.573 12.896 222.989 12.896C223.389 12.896 223.725 13.04 223.997 13.328C224.285 13.616 224.429 13.968 224.429 14.384C224.429 14.8 224.285 15.152 223.997 15.44C223.725 15.728 223.389 15.872 222.989 15.872Z" fill="white" fill-opacity="0.6"/>
<path d="M247.796 22.136V20.48L256.22 8.816H258.836V20.24H261.236V22.136H258.836V26H256.676V22.136H247.796ZM256.772 11.096L250.316 20.24H256.772V11.096ZM273.09 12.776C272.738 11 271.642 10.112 269.802 10.112C268.378 10.112 267.314 10.664 266.61 11.768C265.906 12.856 265.562 14.656 265.578 17.168C265.946 16.336 266.554 15.688 267.402 15.224C268.266 14.744 269.226 14.504 270.282 14.504C271.93 14.504 273.242 15.016 274.218 16.04C275.21 17.064 275.706 18.48 275.706 20.288C275.706 21.376 275.49 22.352 275.058 23.216C274.642 24.08 274.002 24.768 273.138 25.28C272.29 25.792 271.258 26.048 270.042 26.048C268.394 26.048 267.106 25.68 266.178 24.944C265.25 24.208 264.602 23.192 264.234 21.896C263.866 20.6 263.682 19 263.682 17.096C263.682 11.224 265.73 8.288 269.826 8.288C271.394 8.288 272.626 8.712 273.522 9.56C274.418 10.408 274.946 11.48 275.106 12.776H273.09ZM269.826 16.352C269.138 16.352 268.49 16.496 267.882 16.784C267.274 17.056 266.778 17.48 266.394 18.056C266.026 18.616 265.842 19.304 265.842 20.12C265.842 21.336 266.194 22.328 266.898 23.096C267.602 23.848 268.61 24.224 269.922 24.224C271.042 24.224 271.93 23.88 272.586 23.192C273.258 22.488 273.594 21.544 273.594 20.36C273.594 19.112 273.274 18.136 272.634 17.432C271.994 16.712 271.058 16.352 269.826 16.352Z" fill="white"/>
<path d="M250.282 50.084C249.73 50.084 249.234 49.988 248.794 49.796C248.362 49.596 248.022 49.324 247.774 48.98C247.526 48.628 247.398 48.224 247.39 47.768H248.554C248.594 48.16 248.754 48.492 249.034 48.764C249.322 49.028 249.738 49.16 250.282 49.16C250.802 49.16 251.21 49.032 251.506 48.776C251.81 48.512 251.962 48.176 251.962 47.768C251.962 47.448 251.874 47.188 251.698 46.988C251.522 46.788 251.302 46.636 251.038 46.532C250.774 46.428 250.418 46.316 249.97 46.196C249.418 46.052 248.974 45.908 248.638 45.764C248.31 45.62 248.026 45.396 247.786 45.092C247.554 44.78 247.438 44.364 247.438 43.844C247.438 43.388 247.554 42.984 247.786 42.632C248.018 42.28 248.342 42.008 248.758 41.816C249.182 41.624 249.666 41.528 250.21 41.528C250.994 41.528 251.634 41.724 252.13 42.116C252.634 42.508 252.918 43.028 252.982 43.676H251.782C251.742 43.356 251.574 43.076 251.278 42.836C250.982 42.588 250.59 42.464 250.102 42.464C249.646 42.464 249.274 42.584 248.986 42.824C248.698 43.056 248.554 43.384 248.554 43.808C248.554 44.112 248.638 44.36 248.806 44.552C248.982 44.744 249.194 44.892 249.442 44.996C249.698 45.092 250.054 45.204 250.51 45.332C251.062 45.484 251.506 45.636 251.842 45.788C252.178 45.932 252.466 46.16 252.706 46.472C252.946 46.776 253.066 47.192 253.066 47.72C253.066 48.128 252.958 48.512 252.742 48.872C252.526 49.232 252.206 49.524 251.782 49.748C251.358 49.972 250.858 50.084 250.282 50.084ZM256.125 42.524V45.32H259.173V46.22H256.125V49.1H259.533V50H255.033V41.624H259.533V42.524H256.125ZM261.137 45.812C261.137 44.996 261.321 44.264 261.689 43.616C262.057 42.96 262.557 42.448 263.189 42.08C263.829 41.712 264.537 41.528 265.313 41.528C266.225 41.528 267.021 41.748 267.701 42.188C268.381 42.628 268.877 43.252 269.189 44.06H267.881C267.649 43.556 267.313 43.168 266.873 42.896C266.441 42.624 265.921 42.488 265.313 42.488C264.729 42.488 264.205 42.624 263.741 42.896C263.277 43.168 262.913 43.556 262.649 44.06C262.385 44.556 262.253 45.14 262.253 45.812C262.253 46.476 262.385 47.06 262.649 47.564C262.913 48.06 263.277 48.444 263.741 48.716C264.205 48.988 264.729 49.124 265.313 49.124C265.921 49.124 266.441 48.992 266.873 48.728C267.313 48.456 267.649 48.068 267.881 47.564H269.189C268.877 48.364 268.381 48.984 267.701 49.424C267.021 49.856 266.225 50.072 265.313 50.072C264.537 50.072 263.829 49.892 263.189 49.532C262.557 49.164 262.057 48.656 261.689 48.008C261.321 47.36 261.137 46.628 261.137 45.812ZM273.827 50.084C273.275 50.084 272.779 49.988 272.339 49.796C271.907 49.596 271.567 49.324 271.319 48.98C271.071 48.628 270.943 48.224 270.935 47.768H272.099C272.139 48.16 272.299 48.492 272.579 48.764C272.867 49.028 273.283 49.16 273.827 49.16C274.347 49.16 274.755 49.032 275.051 48.776C275.355 48.512 275.507 48.176 275.507 47.768C275.507 47.448 275.419 47.188 275.243 46.988C275.067 46.788 274.847 46.636 274.583 46.532C274.319 46.428 273.963 46.316 273.515 46.196C272.963 46.052 272.519 45.908 272.183 45.764C271.855 45.62 271.571 45.396 271.331 45.092C271.099 44.78 270.983 44.364 270.983 43.844C270.983 43.388 271.099 42.984 271.331 42.632C271.563 42.28 271.887 42.008 272.303 41.816C272.727 41.624 273.211 41.528 273.755 41.528C274.539 41.528 275.179 41.724 275.675 42.116C276.179 42.508 276.463 43.028 276.527 43.676H275.327C275.287 43.356 275.119 43.076 274.823 42.836C274.527 42.588 274.135 42.464 273.647 42.464C273.191 42.464 272.819 42.584 272.531 42.824C272.243 43.056 272.099 43.384 272.099 43.808C272.099 44.112 272.183 44.36 272.351 44.552C272.527 44.744 272.739 44.892 272.987 44.996C273.243 45.092 273.599 45.204 274.055 45.332C274.607 45.484 275.051 45.636 275.387 45.788C275.723 45.932 276.011 46.16 276.251 46.472C276.491 46.776 276.611 47.192 276.611 47.72C276.611 48.128 276.503 48.512 276.287 48.872C276.071 49.232 275.751 49.524 275.327 49.748C274.903 49.972 274.403 50.084 273.827 50.084Z" fill="white" fill-opacity="0.8"/>
</svg>
