<svg xmlns="http://www.w3.org/2000/svg" width="32" height="33" viewBox="0 0 32 33" fill="none">
  <path d="M31.2749 4.84283C27.4022 4.84283 21.9311 5.16687 19.1352 7.96129C17.9247 9.1718 17.3202 11.1451 17.4771 13.3787C17.4975 13.6737 17.6937 13.9251 17.9756 14.0181C18.256 14.1097 18.5641 14.0239 18.7559 13.7987C20.3108 11.9692 22.2435 10.5029 24.5046 9.44066C24.6964 9.34911 24.9231 9.34182 25.1295 9.4145C25.3111 9.47989 25.4535 9.60339 25.5276 9.76183C25.6816 10.0874 25.6322 10.516 25.1207 10.7572C25.0917 10.7717 25.0655 10.7907 25.0365 10.8037C25.0263 10.8081 25.0147 10.8067 25.006 10.811C19.4346 13.4296 16.6954 17.9984 15.4514 22.6964C14.5446 16.814 12.6294 13.3511 10.8202 11.2252C9.51095 9.52791 8.22341 8.62836 7.47943 8.1198C7.34136 8.02532 6.92435 7.74053 6.7514 7.56758C6.46803 7.28421 6.46803 6.82354 6.7514 6.54017C7.03477 6.25823 7.49687 6.25823 7.81218 6.57212C7.88923 6.64044 8.01272 6.72763 8.16966 6.83226L8.29902 6.91945C9.35108 7.64019 11.31 8.97855 13.0479 11.8602C13.2034 12.1174 13.5042 12.2554 13.7963 12.2002C14.0928 12.1479 14.3252 11.9198 14.3834 11.6248C14.7627 9.68771 14.5927 6.81332 12.8649 5.08553C10.069 2.29254 4.59789 1.96851 0.726671 1.96851C0.32553 1.96844 0 2.29397 0 2.69504C0 6.56769 0.324032 12.0388 3.11846 14.8348C4.28387 16.0002 6.08147 16.5233 7.86736 16.5233C9.32486 16.5233 10.7533 16.1585 11.8476 15.5264C13.3399 18.6187 14.5316 23.2383 14.5316 30.3051C14.5316 30.7061 14.8571 31.0317 15.2582 31.0317C15.6592 31.0317 15.9848 30.7061 15.9848 30.3051C15.9848 26.3627 16.6605 21.6311 19.173 17.7367C20.18 18.7205 21.9137 19.3439 23.8347 19.402C23.9306 19.4049 24.0251 19.4064 24.1195 19.4064C26.0711 19.4064 27.796 18.7946 28.8815 17.7076C31.6773 14.9117 31.9999 9.44059 31.9999 5.56787C32.0015 5.16687 31.6774 4.84283 31.2749 4.84283Z" fill="#00B307"/>
</svg>